<svg width="1280" height="720" xmlns="http://www.w3.org/2000/svg" xmlns:xlink="http://www.w3.org/1999/xlink" overflow="hidden"><defs><filter id="fx0" x="-10%" y="-10%" width="120%" height="120%" filterUnits="userSpaceOnUse" primitiveUnits="userSpaceOnUse"><feComponentTransfer color-interpolation-filters="sRGB"><feFuncR type="discrete" tableValues="1 1"/><feFuncG type="discrete" tableValues="1 1"/><feFuncB type="discrete" tableValues="1 1"/><feFuncA type="linear" slope="0.4" intercept="0"/></feComponentTransfer><feGaussianBlur stdDeviation="4.44444 4.44444"/></filter><filter id="fx1" x="-10%" y="-10%" width="120%" height="120%" filterUnits="userSpaceOnUse" primitiveUnits="userSpaceOnUse"><feComponentTransfer color-interpolation-filters="sRGB"><feFuncR type="discrete" tableValues="0 0"/><feFuncG type="discrete" tableValues="0 0"/><feFuncB type="discrete" tableValues="0 0"/><feFuncA type="linear" slope="0.4" intercept="0"/></feComponentTransfer><feGaussianBlur stdDeviation="1.77778 1.77778"/></filter><filter id="fx2" x="-10%" y="-10%" width="120%" height="120%" filterUnits="userSpaceOnUse" primitiveUnits="userSpaceOnUse"><feComponentTransfer color-interpolation-filters="sRGB"><feFuncR type="discrete" tableValues="1 1"/><feFuncG type="discrete" tableValues="1 1"/><feFuncB type="discrete" tableValues="1 1"/><feFuncA type="linear" slope="0.4" intercept="0"/></feComponentTransfer><feGaussianBlur stdDeviation="4.44444 4.44444"/></filter><filter id="fx3" x="-10%" y="-10%" width="120%" height="120%" filterUnits="userSpaceOnUse" primitiveUnits="userSpaceOnUse"><feComponentTransfer color-interpolation-filters="sRGB"><feFuncR type="discrete" tableValues="0 0"/><feFuncG type="discrete" tableValues="0 0"/><feFuncB type="discrete" tableValues="0 0"/><feFuncA type="linear" slope="0.4" intercept="0"/></feComponentTransfer><feGaussianBlur stdDeviation="1.77778 1.77778"/></filter><filter id="fx4" x="-10%" y="-10%" width="120%" height="120%" filterUnits="userSpaceOnUse" primitiveUnits="userSpaceOnUse"><feComponentTransfer color-interpolation-filters="sRGB"><feFuncR type="discrete" tableValues="1 1"/><feFuncG type="discrete" tableValues="1 1"/><feFuncB type="discrete" tableValues="1 1"/><feFuncA type="linear" slope="0.4" intercept="0"/></feComponentTransfer><feGaussianBlur stdDeviation="4.44444 4.44444"/></filter><filter id="fx5" x="-10%" y="-10%" width="120%" height="120%" filterUnits="userSpaceOnUse" primitiveUnits="userSpaceOnUse"><feComponentTransfer color-interpolation-filters="sRGB"><feFuncR type="discrete" tableValues="0 0"/><feFuncG type="discrete" tableValues="0 0"/><feFuncB type="discrete" tableValues="0 0"/><feFuncA type="linear" slope="0.4" intercept="0"/></feComponentTransfer><feGaussianBlur stdDeviation="1.77778 1.77778"/></filter><filter id="fx6" x="-10%" y="-10%" width="120%" height="120%" filterUnits="userSpaceOnUse" primitiveUnits="userSpaceOnUse"><feComponentTransfer color-interpolation-filters="sRGB"><feFuncR type="discrete" tableValues="1 1"/><feFuncG type="discrete" tableValues="1 1"/><feFuncB type="discrete" tableValues="1 1"/><feFuncA type="linear" slope="0.4" intercept="0"/></feComponentTransfer><feGaussianBlur stdDeviation="4.44444 4.44444"/></filter><filter id="fx7" x="-10%" y="-10%" width="120%" height="120%" filterUnits="userSpaceOnUse" primitiveUnits="userSpaceOnUse"><feComponentTransfer color-interpolation-filters="sRGB"><feFuncR type="discrete" tableValues="0 0"/><feFuncG type="discrete" tableValues="0 0"/><feFuncB type="discrete" tableValues="0 0"/><feFuncA type="linear" slope="0.4" intercept="0"/></feComponentTransfer><feGaussianBlur stdDeviation="1.77778 1.77778"/></filter><filter id="fx8" x="-10%" y="-10%" width="120%" height="120%" filterUnits="userSpaceOnUse" primitiveUnits="userSpaceOnUse"><feComponentTransfer color-interpolation-filters="sRGB"><feFuncR type="discrete" tableValues="1 1"/><feFuncG type="discrete" tableValues="1 1"/><feFuncB type="discrete" tableValues="1 1"/><feFuncA type="linear" slope="0.4" intercept="0"/></feComponentTransfer><feGaussianBlur stdDeviation="4.44444 4.44444"/></filter><filter id="fx9" x="-10%" y="-10%" width="120%" height="120%" filterUnits="userSpaceOnUse" primitiveUnits="userSpaceOnUse"><feComponentTransfer color-interpolation-filters="sRGB"><feFuncR type="discrete" tableValues="0 0"/><feFuncG type="discrete" tableValues="0 0"/><feFuncB type="discrete" tableValues="0 0"/><feFuncA type="linear" slope="0.4" intercept="0"/></feComponentTransfer><feGaussianBlur stdDeviation="1.77778 1.77778"/></filter><filter id="fx10" x="-10%" y="-10%" width="120%" height="120%" filterUnits="userSpaceOnUse" primitiveUnits="userSpaceOnUse"><feComponentTransfer color-interpolation-filters="sRGB"><feFuncR type="discrete" tableValues="1 1"/><feFuncG type="discrete" tableValues="1 1"/><feFuncB type="discrete" tableValues="1 1"/><feFuncA type="linear" slope="0.4" intercept="0"/></feComponentTransfer><feGaussianBlur stdDeviation="4.44444 4.44444"/></filter><filter id="fx11" x="-10%" y="-10%" width="120%" height="120%" filterUnits="userSpaceOnUse" primitiveUnits="userSpaceOnUse"><feComponentTransfer color-interpolation-filters="sRGB"><feFuncR type="discrete" tableValues="0 0"/><feFuncG type="discrete" tableValues="0 0"/><feFuncB type="discrete" tableValues="0 0"/><feFuncA type="linear" slope="0.4" intercept="0"/></feComponentTransfer><feGaussianBlur stdDeviation="1.77778 1.77778"/></filter><filter id="fx12" x="-10%" y="-10%" width="120%" height="120%" filterUnits="userSpaceOnUse" primitiveUnits="userSpaceOnUse"><feComponentTransfer color-interpolation-filters="sRGB"><feFuncR type="discrete" tableValues="1 1"/><feFuncG type="discrete" tableValues="1 1"/><feFuncB type="discrete" tableValues="1 1"/><feFuncA type="linear" slope="0.4" intercept="0"/></feComponentTransfer><feGaussianBlur stdDeviation="4.44444 4.44444"/></filter><filter id="fx13" x="-10%" y="-10%" width="120%" height="120%" filterUnits="userSpaceOnUse" primitiveUnits="userSpaceOnUse"><feComponentTransfer color-interpolation-filters="sRGB"><feFuncR type="discrete" tableValues="0 0"/><feFuncG type="discrete" tableValues="0 0"/><feFuncB type="discrete" tableValues="0 0"/><feFuncA type="linear" slope="0.4" intercept="0"/></feComponentTransfer><feGaussianBlur stdDeviation="1.77778 1.77778"/></filter><filter id="fx14" x="-10%" y="-10%" width="120%" height="120%" filterUnits="userSpaceOnUse" primitiveUnits="userSpaceOnUse"><feComponentTransfer color-interpolation-filters="sRGB"><feFuncR type="discrete" tableValues="1 1"/><feFuncG type="discrete" tableValues="1 1"/><feFuncB type="discrete" tableValues="1 1"/><feFuncA type="linear" slope="0.4" intercept="0"/></feComponentTransfer><feGaussianBlur stdDeviation="4.44444 4.44444"/></filter><filter id="fx15" x="-10%" y="-10%" width="120%" height="120%" filterUnits="userSpaceOnUse" primitiveUnits="userSpaceOnUse"><feComponentTransfer color-interpolation-filters="sRGB"><feFuncR type="discrete" tableValues="0 0"/><feFuncG type="discrete" tableValues="0 0"/><feFuncB type="discrete" tableValues="0 0"/><feFuncA type="linear" slope="0.4" intercept="0"/></feComponentTransfer><feGaussianBlur stdDeviation="1.77778 1.77778"/></filter><filter id="fx16" x="-10%" y="-10%" width="120%" height="120%" filterUnits="userSpaceOnUse" primitiveUnits="userSpaceOnUse"><feComponentTransfer color-interpolation-filters="sRGB"><feFuncR type="discrete" tableValues="1 1"/><feFuncG type="discrete" tableValues="1 1"/><feFuncB type="discrete" tableValues="1 1"/><feFuncA type="linear" slope="0.4" intercept="0"/></feComponentTransfer><feGaussianBlur stdDeviation="4.44444 4.44444"/></filter><filter id="fx17" x="-10%" y="-10%" width="120%" height="120%" filterUnits="userSpaceOnUse" primitiveUnits="userSpaceOnUse"><feComponentTransfer color-interpolation-filters="sRGB"><feFuncR type="discrete" tableValues="0 0"/><feFuncG type="discrete" tableValues="0 0"/><feFuncB type="discrete" tableValues="0 0"/><feFuncA type="linear" slope="0.4" intercept="0"/></feComponentTransfer><feGaussianBlur stdDeviation="1.77778 1.77778"/></filter><filter id="fx18" x="-10%" y="-10%" width="120%" height="120%" filterUnits="userSpaceOnUse" primitiveUnits="userSpaceOnUse"><feComponentTransfer color-interpolation-filters="sRGB"><feFuncR type="discrete" tableValues="1 1"/><feFuncG type="discrete" tableValues="1 1"/><feFuncB type="discrete" tableValues="1 1"/><feFuncA type="linear" slope="0.4" intercept="0"/></feComponentTransfer><feGaussianBlur stdDeviation="4.44444 4.44444"/></filter><filter id="fx19" x="-10%" y="-10%" width="120%" height="120%" filterUnits="userSpaceOnUse" primitiveUnits="userSpaceOnUse"><feComponentTransfer color-interpolation-filters="sRGB"><feFuncR type="discrete" tableValues="0 0"/><feFuncG type="discrete" tableValues="0 0"/><feFuncB type="discrete" tableValues="0 0"/><feFuncA type="linear" slope="0.4" intercept="0"/></feComponentTransfer><feGaussianBlur stdDeviation="1.77778 1.77778"/></filter><clipPath id="clip20"><rect x="0" y="0" width="1280" height="720"/></clipPath><linearGradient x1="640.5" y1="39.5001" x2="640.5" y2="681.5" gradientUnits="userSpaceOnUse" spreadMethod="reflect" id="fill21"><stop offset="0" stop-color="#27273D"/><stop offset="0.58" stop-color="#27273D"/><stop offset="1" stop-color="#9DC3E6"/></linearGradient><clipPath id="clip22"><rect x="-2" y="-2" width="215" height="166"/></clipPath><clipPath id="clip23"><rect x="0" y="0" width="212" height="162"/></clipPath><clipPath id="clip24"><rect x="-2" y="-2" width="199" height="149"/></clipPath><clipPath id="clip25"><rect x="0" y="0" width="196" height="146"/></clipPath><linearGradient x1="139" y1="537" x2="139" y2="669" gradientUnits="userSpaceOnUse" spreadMethod="reflect" id="fill26"><stop offset="0" stop-color="#EDEEF3"/><stop offset="1" stop-color="#FFFFFF"/></linearGradient><clipPath id="clip27"><rect x="-2" y="-2" width="215" height="166"/></clipPath><clipPath id="clip28"><rect x="0" y="0" width="212" height="162"/></clipPath><clipPath id="clip29"><rect x="-2" y="-2" width="199" height="149"/></clipPath><clipPath id="clip30"><rect x="0" y="0" width="196" height="146"/></clipPath><linearGradient x1="139" y1="392" x2="139" y2="524" gradientUnits="userSpaceOnUse" spreadMethod="reflect" id="fill31"><stop offset="0" stop-color="#EDEEF3"/><stop offset="1" stop-color="#FFFFFF"/></linearGradient><clipPath id="clip32"><rect x="-2" y="-2" width="207" height="166"/></clipPath><clipPath id="clip33"><rect x="0" y="0" width="203" height="162"/></clipPath><clipPath id="clip34"><rect x="-2" y="-2" width="190" height="149"/></clipPath><clipPath id="clip35"><rect x="0" y="0" width="187" height="146"/></clipPath><linearGradient x1="357.5" y1="537" x2="357.5" y2="669" gradientUnits="userSpaceOnUse" spreadMethod="reflect" id="fill36"><stop offset="0" stop-color="#EDEEF3"/><stop offset="1" stop-color="#FFFFFF"/></linearGradient><clipPath id="clip37"><rect x="-2" y="-2" width="207" height="166"/></clipPath><clipPath id="clip38"><rect x="0" y="0" width="203" height="162"/></clipPath><clipPath id="clip39"><rect x="-2" y="-2" width="190" height="149"/></clipPath><clipPath id="clip40"><rect x="0" y="0" width="187" height="146"/></clipPath><clipPath id="clip41"><rect x="-2" y="-2" width="303" height="166"/></clipPath><clipPath id="clip42"><rect x="0" y="0" width="299" height="162"/></clipPath><clipPath id="clip43"><rect x="-2" y="-2" width="285" height="149"/></clipPath><clipPath id="clip44"><rect x="0" y="0" width="283" height="146"/></clipPath><linearGradient x1="759.5" y1="537" x2="759.5" y2="669" gradientUnits="userSpaceOnUse" spreadMethod="reflect" id="fill45"><stop offset="0" stop-color="#EDEEF3"/><stop offset="1" stop-color="#FFFFFF"/></linearGradient><clipPath id="clip46"><rect x="-2" y="-2" width="404" height="352"/></clipPath><clipPath id="clip47"><rect x="0" y="0" width="401" height="350"/></clipPath><clipPath id="clip48"><rect x="-2" y="-2" width="389" height="337"/></clipPath><clipPath id="clip49"><rect x="0" y="0" width="385" height="334"/></clipPath><linearGradient x1="245.5" y1="51" x2="245.5" y2="371" gradientUnits="userSpaceOnUse" spreadMethod="reflect" id="fill50"><stop offset="0" stop-color="#EDEEF3"/><stop offset="1" stop-color="#FFFFFF"/></linearGradient><clipPath id="clip51"><rect x="-2" y="-2" width="303" height="166"/></clipPath><clipPath id="clip52"><rect x="0" y="0" width="299" height="162"/></clipPath><clipPath id="clip53"><rect x="-2" y="-2" width="285" height="149"/></clipPath><clipPath id="clip54"><rect x="0" y="0" width="283" height="146"/></clipPath><linearGradient x1="1085.5" y1="537" x2="1085.5" y2="669" gradientUnits="userSpaceOnUse" spreadMethod="reflect" id="fill55"><stop offset="0" stop-color="#EDEEF3"/><stop offset="1" stop-color="#FFFFFF"/></linearGradient><clipPath id="clip56"><rect x="-2" y="-2" width="303" height="166"/></clipPath><clipPath id="clip57"><rect x="0" y="0" width="299" height="162"/></clipPath><clipPath id="clip58"><rect x="-2" y="-2" width="285" height="149"/></clipPath><clipPath id="clip59"><rect x="0" y="0" width="283" height="146"/></clipPath><linearGradient x1="759.5" y1="392" x2="759.5" y2="524" gradientUnits="userSpaceOnUse" spreadMethod="reflect" id="fill60"><stop offset="0" stop-color="#EDEEF3"/><stop offset="1" stop-color="#FFFFFF"/></linearGradient><clipPath id="clip61"><rect x="-2" y="-2" width="303" height="166"/></clipPath><clipPath id="clip62"><rect x="0" y="0" width="299" height="162"/></clipPath><clipPath id="clip63"><rect x="-2" y="-2" width="285" height="149"/></clipPath><clipPath id="clip64"><rect x="0" y="0" width="283" height="146"/></clipPath><linearGradient x1="1085.5" y1="392" x2="1085.5" y2="524" gradientUnits="userSpaceOnUse" spreadMethod="reflect" id="fill65"><stop offset="0" stop-color="#EDEEF3"/><stop offset="1" stop-color="#FFFFFF"/></linearGradient><clipPath id="clip66"><rect x="-2" y="-2" width="218" height="166"/></clipPath><clipPath id="clip67"><rect x="0" y="0" width="215" height="162"/></clipPath><clipPath id="clip68"><rect x="-2" y="-2" width="201" height="149"/></clipPath><clipPath id="clip69"><rect x="0" y="0" width="199" height="146"/></clipPath><linearGradient x1="1127.5" y1="51" x2="1127.5" y2="183" gradientUnits="userSpaceOnUse" spreadMethod="reflect" id="fill70"><stop offset="0" stop-color="#EDEEF3"/><stop offset="1" stop-color="#FFFFFF"/></linearGradient></defs><g clip-path="url(#clip20)"><rect x="0" y="0" width="1280" height="720" fill="#FFFFFF"/><path d="M35.5001 80.6975C35.5001 57.9448 53.9448 39.5001 76.6975 39.5001L1204.3 39.5001C1227.06 39.5001 1245.5 57.9448 1245.5 80.6975L1245.5 640.303C1245.5 663.055 1227.06 681.5 1204.3 681.5L76.6975 681.5C53.9448 681.5 35.5001 663.055 35.5001 640.303Z" stroke="#EDEEF3" stroke-width="1.33333" stroke-miterlimit="8" fill="url(#fill21)" fill-rule="evenodd"/><g clip-path="url(#clip22)" filter="url(#fx0)" transform="translate(24 513)"><g clip-path="url(#clip23)"><path d="M14.5719 60.0116C14.5719 34.9159 34.916 14.5719 60.0116 14.5719L151.132 14.5719C176.228 14.5719 196.572 34.9159 196.572 60.0116L196.572 101.132C196.572 126.228 176.228 146.572 151.132 146.572L60.0116 146.572C34.916 146.572 14.5719 126.228 14.5719 101.132Z" fill="#D9D9D9" fill-rule="evenodd"/></g></g><path d="M48 582.44C48 557.344 68.344 537 93.4397 537L184.56 537C209.656 537 230 557.344 230 582.44L230 623.56C230 648.656 209.656 669 184.56 669L93.4397 669C68.344 669 48 648.656 48 623.56Z" fill="#D9D9D9" fill-rule="evenodd"/><g clip-path="url(#clip24)" filter="url(#fx1)" transform="translate(44 533)"><g clip-path="url(#clip25)"><path d="M6.82843 52.2681C6.82843 27.1725 27.1725 6.82843 52.2681 6.82843L143.389 6.82843C168.484 6.82843 188.828 27.1725 188.828 52.2681L188.828 93.3887C188.828 118.484 168.484 138.828 143.389 138.828L52.2681 138.828C27.1725 138.828 6.82843 118.484 6.82843 93.3887Z" fill="#FF0000" fill-rule="evenodd"/></g></g><path d="M48 582.44C48 557.344 68.344 537 93.4397 537L184.56 537C209.656 537 230 557.344 230 582.44L230 623.56C230 648.656 209.656 669 184.56 669L93.4397 669C68.344 669 48 648.656 48 623.56Z" fill="url(#fill26)" fill-rule="evenodd"/><g clip-path="url(#clip27)" filter="url(#fx2)" transform="translate(24 368)"><g clip-path="url(#clip28)"><path d="M14.5719 60.0116C14.5719 34.9159 34.916 14.5719 60.0116 14.5719L151.132 14.5719C176.228 14.5719 196.572 34.9159 196.572 60.0116L196.572 101.132C196.572 126.228 176.228 146.572 151.132 146.572L60.0116 146.572C34.916 146.572 14.5719 126.228 14.5719 101.132Z" fill="#D9D9D9" fill-rule="evenodd"/></g></g><path d="M48 437.44C48 412.344 68.344 392 93.4397 392L184.56 392C209.656 392 230 412.344 230 437.44L230 478.56C230 503.656 209.656 524 184.56 524L93.4397 524C68.344 524 48 503.656 48 478.56Z" fill="#D9D9D9" fill-rule="evenodd"/><g clip-path="url(#clip29)" filter="url(#fx3)" transform="translate(44 388)"><g clip-path="url(#clip30)"><path d="M6.82843 52.2681C6.82843 27.1725 27.1725 6.82843 52.2681 6.82843L143.389 6.82843C168.484 6.82843 188.828 27.1725 188.828 52.2681L188.828 93.3887C188.828 118.484 168.484 138.828 143.389 138.828L52.2681 138.828C27.1725 138.828 6.82843 118.484 6.82843 93.3887Z" fill="#FF0000" fill-rule="evenodd"/></g></g><path d="M48 437.44C48 412.344 68.344 392 93.4397 392L184.56 392C209.656 392 230 412.344 230 437.44L230 478.56C230 503.656 209.656 524 184.56 524L93.4397 524C68.344 524 48 503.656 48 478.56Z" fill="url(#fill31)" fill-rule="evenodd"/><g clip-path="url(#clip32)" filter="url(#fx4)" transform="translate(247 513)"><g clip-path="url(#clip33)"><path d="M14.5719 60.0115C14.5719 34.9159 34.9159 14.5719 60.0115 14.5719L142.132 14.5719C167.228 14.5719 187.572 34.9159 187.572 60.0115L187.572 101.132C187.572 126.228 167.228 146.572 142.132 146.572L60.0115 146.572C34.9159 146.572 14.5719 126.228 14.5719 101.132Z" fill="#D9D9D9" fill-rule="evenodd"/></g></g><path d="M271 582.44C271 557.344 291.344 537 316.44 537L398.56 537C423.656 537 444 557.344 444 582.44L444 623.56C444 648.656 423.656 669 398.56 669L316.44 669C291.344 669 271 648.656 271 623.56Z" fill="#D9D9D9" fill-rule="evenodd"/><g clip-path="url(#clip34)" filter="url(#fx5)" transform="translate(267 533)"><g clip-path="url(#clip35)"><path d="M6.82843 52.268C6.82843 27.1724 27.1724 6.82843 52.268 6.82843L134.389 6.82843C159.484 6.82843 179.828 27.1724 179.828 52.268L179.828 93.3888C179.828 118.484 159.484 138.828 134.389 138.828L52.268 138.828C27.1724 138.828 6.82843 118.484 6.82843 93.3888Z" fill="#FF0000" fill-rule="evenodd"/></g></g><path d="M271 582.44C271 557.344 291.344 537 316.44 537L398.56 537C423.656 537 444 557.344 444 582.44L444 623.56C444 648.656 423.656 669 398.56 669L316.44 669C291.344 669 271 648.656 271 623.56Z" fill="url(#fill36)" fill-rule="evenodd"/><g clip-path="url(#clip37)" filter="url(#fx6)" transform="translate(247 368)"><g clip-path="url(#clip38)"><path d="M14.5719 60.0115C14.5719 34.9159 34.9159 14.5719 60.0115 14.5719L142.132 14.5719C167.228 14.5719 187.572 34.9159 187.572 60.0115L187.572 101.132C187.572 126.228 167.228 146.572 142.132 146.572L60.0115 146.572C34.9159 146.572 14.5719 126.228 14.5719 101.132Z" fill="#EDEEF3" fill-rule="evenodd"/></g></g><path d="M271 437.44C271 412.344 291.344 392 316.44 392L398.56 392C423.656 392 444 412.344 444 437.44L444 478.56C444 503.656 423.656 524 398.56 524L316.44 524C291.344 524 271 503.656 271 478.56Z" fill="#EDEEF3" fill-rule="evenodd"/><g clip-path="url(#clip39)" filter="url(#fx7)" transform="translate(267 388)"><g clip-path="url(#clip40)"><path d="M6.82843 52.268C6.82843 27.1724 27.1724 6.82843 52.268 6.82843L134.389 6.82843C159.484 6.82843 179.828 27.1724 179.828 52.268L179.828 93.3888C179.828 118.484 159.484 138.828 134.389 138.828L52.268 138.828C27.1724 138.828 6.82843 118.484 6.82843 93.3888Z" fill="#EDEEF3" fill-rule="evenodd"/></g></g><path d="M271 437.44C271 412.344 291.344 392 316.44 392L398.56 392C423.656 392 444 412.344 444 437.44L444 478.56C444 503.656 423.656 524 398.56 524L316.44 524C291.344 524 271 503.656 271 478.56Z" fill="#EDEEF3" fill-rule="evenodd"/><g clip-path="url(#clip41)" filter="url(#fx8)" transform="translate(601 513)"><g clip-path="url(#clip42)"><path d="M14.5719 60.0116C14.5719 34.916 34.9159 14.5719 60.0115 14.5719L238.132 14.5719C263.228 14.5719 283.572 34.916 283.572 60.0116L283.572 101.132C283.572 126.228 263.228 146.572 238.132 146.572L60.0115 146.572C34.9159 146.572 14.5719 126.228 14.5719 101.132Z" fill="#D9D9D9" fill-rule="evenodd"/></g></g><path d="M625 582.44C625 557.344 645.344 537 670.44 537L848.56 537C873.656 537 894 557.344 894 582.44L894 623.56C894 648.656 873.656 669 848.56 669L670.44 669C645.344 669 625 648.656 625 623.56Z" fill="#D9D9D9" fill-rule="evenodd"/><g clip-path="url(#clip43)" filter="url(#fx9)" transform="translate(621 533)"><g clip-path="url(#clip44)"><path d="M6.82843 52.2682C6.82843 27.1725 27.1724 6.82843 52.2681 6.82843L230.389 6.82843C255.484 6.82843 275.828 27.1725 275.828 52.2682L275.828 93.3887C275.828 118.484 255.484 138.828 230.389 138.828L52.2681 138.828C27.1724 138.828 6.82843 118.484 6.82843 93.3887Z" fill="#FF0000" fill-rule="evenodd"/></g></g><path d="M625 582.44C625 557.344 645.344 537 670.44 537L848.56 537C873.656 537 894 557.344 894 582.44L894 623.56C894 648.656 873.656 669 848.56 669L670.44 669C645.344 669 625 648.656 625 623.56Z" fill="url(#fill45)" fill-rule="evenodd"/><g clip-path="url(#clip46)" filter="url(#fx10)" transform="translate(36 27)"><g clip-path="url(#clip47)"><path d="M14.5719 124.729C14.5719 63.8908 63.8907 14.5719 124.729 14.5719L275.415 14.5719C336.253 14.5719 385.572 63.8908 385.572 124.729L385.572 224.415C385.572 285.253 336.253 334.572 275.415 334.572L124.729 334.572C63.8907 334.572 14.5719 285.253 14.5719 224.415Z" fill="#D9D9D9" fill-rule="evenodd"/></g></g><path d="M60 161.157C60 100.319 109.319 51 170.157 51L320.843 51C381.681 51 431 100.319 431 161.157L431 260.843C431 321.681 381.681 371 320.843 371L170.157 371C109.319 371 60 321.681 60 260.843Z" fill="#D9D9D9" fill-rule="evenodd"/><g clip-path="url(#clip48)" filter="url(#fx11)" transform="translate(56 47)"><g clip-path="url(#clip49)"><path d="M6.82843 116.985C6.82843 56.1473 56.1472 6.82843 116.985 6.82843L267.672 6.82843C328.51 6.82843 377.828 56.1473 377.828 116.985L377.828 216.672C377.828 277.51 328.51 326.828 267.672 326.828L116.985 326.828C56.1472 326.828 6.82843 277.51 6.82843 216.672Z" fill="#FF0000" fill-rule="evenodd"/></g></g><path d="M60 161.157C60 100.319 109.319 51 170.157 51L320.843 51C381.681 51 431 100.319 431 161.157L431 260.843C431 321.681 381.681 371 320.843 371L170.157 371C109.319 371 60 321.681 60 260.843Z" fill="url(#fill50)" fill-rule="evenodd"/><g clip-path="url(#clip51)" filter="url(#fx12)" transform="translate(927 513)"><g clip-path="url(#clip52)"><path d="M14.5719 60.0116C14.5719 34.916 34.9159 14.5719 60.0115 14.5719L238.132 14.5719C263.228 14.5719 283.572 34.916 283.572 60.0116L283.572 101.132C283.572 126.228 263.228 146.572 238.132 146.572L60.0115 146.572C34.9159 146.572 14.5719 126.228 14.5719 101.132Z" fill="#D9D9D9" fill-rule="evenodd"/></g></g><path d="M951 582.44C951 557.344 971.344 537 996.44 537L1174.56 537C1199.66 537 1220 557.344 1220 582.44L1220 623.56C1220 648.656 1199.66 669 1174.56 669L996.44 669C971.344 669 951 648.656 951 623.56Z" fill="#D9D9D9" fill-rule="evenodd"/><g clip-path="url(#clip53)" filter="url(#fx13)" transform="translate(947 533)"><g clip-path="url(#clip54)"><path d="M6.82843 52.2682C6.82843 27.1725 27.1724 6.82843 52.2681 6.82843L230.389 6.82843C255.484 6.82843 275.828 27.1725 275.828 52.2682L275.828 93.3887C275.828 118.484 255.484 138.828 230.389 138.828L52.2681 138.828C27.1724 138.828 6.82843 118.484 6.82843 93.3887Z" fill="#FF0000" fill-rule="evenodd"/></g></g><path d="M951 582.44C951 557.344 971.344 537 996.44 537L1174.56 537C1199.66 537 1220 557.344 1220 582.44L1220 623.56C1220 648.656 1199.66 669 1174.56 669L996.44 669C971.344 669 951 648.656 951 623.56Z" fill="url(#fill55)" fill-rule="evenodd"/><g clip-path="url(#clip56)" filter="url(#fx14)" transform="translate(601 368)"><g clip-path="url(#clip57)"><path d="M14.5719 60.0116C14.5719 34.916 34.9159 14.5719 60.0115 14.5719L238.132 14.5719C263.228 14.5719 283.572 34.916 283.572 60.0116L283.572 101.132C283.572 126.228 263.228 146.572 238.132 146.572L60.0115 146.572C34.9159 146.572 14.5719 126.228 14.5719 101.132Z" fill="#D9D9D9" fill-rule="evenodd"/></g></g><path d="M625 437.44C625 412.344 645.344 392 670.44 392L848.56 392C873.656 392 894 412.344 894 437.44L894 478.56C894 503.656 873.656 524 848.56 524L670.44 524C645.344 524 625 503.656 625 478.56Z" fill="#D9D9D9" fill-rule="evenodd"/><g clip-path="url(#clip58)" filter="url(#fx15)" transform="translate(621 388)"><g clip-path="url(#clip59)"><path d="M6.82843 52.2682C6.82843 27.1725 27.1724 6.82843 52.2681 6.82843L230.389 6.82843C255.484 6.82843 275.828 27.1725 275.828 52.2682L275.828 93.3887C275.828 118.484 255.484 138.828 230.389 138.828L52.2681 138.828C27.1724 138.828 6.82843 118.484 6.82843 93.3887Z" fill="#FF0000" fill-rule="evenodd"/></g></g><path d="M625 437.44C625 412.344 645.344 392 670.44 392L848.56 392C873.656 392 894 412.344 894 437.44L894 478.56C894 503.656 873.656 524 848.56 524L670.44 524C645.344 524 625 503.656 625 478.56Z" fill="url(#fill60)" fill-rule="evenodd"/><g clip-path="url(#clip61)" filter="url(#fx16)" transform="translate(927 368)"><g clip-path="url(#clip62)"><path d="M14.5719 60.0116C14.5719 34.916 34.9159 14.5719 60.0115 14.5719L238.132 14.5719C263.228 14.5719 283.572 34.916 283.572 60.0116L283.572 101.132C283.572 126.228 263.228 146.572 238.132 146.572L60.0115 146.572C34.9159 146.572 14.5719 126.228 14.5719 101.132Z" fill="#D9D9D9" fill-rule="evenodd"/></g></g><path d="M951 437.44C951 412.344 971.344 392 996.44 392L1174.56 392C1199.66 392 1220 412.344 1220 437.44L1220 478.56C1220 503.656 1199.66 524 1174.56 524L996.44 524C971.344 524 951 503.656 951 478.56Z" fill="#D9D9D9" fill-rule="evenodd"/><g clip-path="url(#clip63)" filter="url(#fx17)" transform="translate(947 388)"><g clip-path="url(#clip64)"><path d="M6.82843 52.2682C6.82843 27.1725 27.1724 6.82843 52.2681 6.82843L230.389 6.82843C255.484 6.82843 275.828 27.1725 275.828 52.2682L275.828 93.3887C275.828 118.484 255.484 138.828 230.389 138.828L52.2681 138.828C27.1724 138.828 6.82843 118.484 6.82843 93.3887Z" fill="#FF0000" fill-rule="evenodd"/></g></g><path d="M951 437.44C951 412.344 971.344 392 996.44 392L1174.56 392C1199.66 392 1220 412.344 1220 437.44L1220 478.56C1220 503.656 1199.66 524 1174.56 524L996.44 524C971.344 524 951 503.656 951 478.56Z" fill="url(#fill65)" fill-rule="evenodd"/><g clip-path="url(#clip66)" filter="url(#fx18)" transform="translate(1011 27)"><g clip-path="url(#clip67)"><path d="M14.5719 60.0117C14.5719 34.916 34.916 14.5719 60.0116 14.5719L154.132 14.5719C179.228 14.5719 199.572 34.916 199.572 60.0117L199.572 101.132C199.572 126.228 179.228 146.572 154.132 146.572L60.0116 146.572C34.916 146.572 14.5719 126.228 14.5719 101.132Z" fill="#D9D9D9" fill-rule="evenodd"/></g></g><path d="M1035 96.4398C1035 71.3441 1055.34 51 1080.44 51L1174.56 51C1199.66 51 1220 71.3441 1220 96.4398L1220 137.56C1220 162.656 1199.66 183 1174.56 183L1080.44 183C1055.34 183 1035 162.656 1035 137.56Z" fill="#D9D9D9" fill-rule="evenodd"/><g clip-path="url(#clip68)" filter="url(#fx19)" transform="translate(1031 47)"><g clip-path="url(#clip69)"><path d="M6.82837 52.2682C6.82837 27.1725 27.1724 6.82843 52.2681 6.82843L146.389 6.82843C171.484 6.82843 191.828 27.1725 191.828 52.2682L191.828 93.3887C191.828 118.484 171.484 138.828 146.389 138.828L52.2681 138.828C27.1724 138.828 6.82837 118.484 6.82837 93.3887Z" fill="#FF0000" fill-rule="evenodd"/></g></g><path d="M1035 96.4398C1035 71.3441 1055.34 51 1080.44 51L1174.56 51C1199.66 51 1220 71.3441 1220 96.4398L1220 137.56C1220 162.656 1199.66 183 1174.56 183L1080.44 183C1055.34 183 1035 162.656 1035 137.56Z" fill="url(#fill70)" fill-rule="evenodd"/></g></svg>